# xmcd
#
# Track frame offsets:
# 150
# 24178
# 41312
# 63762
# 87049
# 110187
# 134735
# 151387
# 176144
# 194030
# 220444
#
# Disc length: 3258 seconds
#
#
# Revision: 2
# Processed by: cddbd v1.5PL3 Copyright (c) Steve Scherf et al.
# Submitted via: FreeRIP 2.70 
#
DISCID=9c0cb80b
DTITLE=Coldplay - A Rush of Blood To the Head
DYEAR=2002
DGENRE=
TTITLE0=Politik
TTITLE1=In My Place
TTITLE2=God Put A Smile Upon Your Face
TTITLE3=The Scientist
TTITLE4=Clocks
TTITLE5=Daylight
TTITLE6=Green Eyes
TTITLE7=Warning Sign
TTITLE8=A Whisper
TTITLE9=A Rush of Blood To The Head
TTITLE10=Amsterdam
EXTD=YEAR: 2002
EXTT0=
EXTT1=
EXTT2=
EXTT3=
EXTT4=
EXTT5=
EXTT6=
EXTT7=
EXTT8=
EXTT9=
EXTT10=
PLAYORDER=
